<svg width="7" height="11" viewBox="0 0 7 11" fill="none" xmlns="http://www.w3.org/2000/svg">
<path d="M0.75 5.76953C0.75 5.91602 0.802734 6.04492 0.914062 6.15625L5.56055 10.6973C5.66016 10.8027 5.78906 10.8555 5.94141 10.8555C6.24609 10.8555 6.48047 10.627 6.48047 10.3223C6.48047 10.1699 6.41602 10.041 6.32227 9.94141L2.05664 5.76953L6.32227 1.59766C6.41602 1.49805 6.48047 1.36328 6.48047 1.2168C6.48047 0.912109 6.24609 0.683594 5.94141 0.683594C5.78906 0.683594 5.66016 0.736328 5.56055 0.835938L0.914062 5.38281C0.802734 5.48828 0.75 5.62305 0.75 5.76953Z" fill="#818F99"/>
</svg>
