<svg width="14" height="14" viewBox="0 0 14 14" fill="none" xmlns="http://www.w3.org/2000/svg">
<path fill-rule="evenodd" clip-rule="evenodd" d="M10.5488 0.855641C11.0213 0.383084 11.7874 0.38302 12.2599 0.8555C12.7324 1.32798 12.7323 2.09408 12.2598 2.56664L2.56659 12.2598C2.09403 12.7324 1.32792 12.7325 0.855445 12.26C0.382965 11.7875 0.383028 11.0214 0.855586 10.5488L10.5488 0.855641Z" fill="#818F99"/>
<path fill-rule="evenodd" clip-rule="evenodd" d="M12.1839 10.4718C12.6563 10.9443 12.6563 11.7104 12.1837 12.183C11.7112 12.6555 10.9451 12.6556 10.4726 12.1831L0.932425 2.64295C0.459946 2.17047 0.460009 1.40437 0.932567 0.931813C1.40512 0.459256 2.17123 0.459192 2.64371 0.931672L12.1839 10.4718Z" fill="#818F99"/>
</svg>
