<svg width="20" height="19" viewBox="0 0 20 19" fill="none" xmlns="http://www.w3.org/2000/svg">
<path d="M1.70117 18.3828C2.04297 18.3828 2.33594 18.2656 2.73633 18.041L7.13086 15.6582L11.9355 18.3535C12.3555 18.5781 12.7852 18.6953 13.1953 18.6953C13.6055 18.6953 14.0156 18.5879 14.3867 18.373L18.8691 15.8438C19.543 15.4629 19.8457 14.9258 19.8457 14.1836V1.80078C19.8457 0.970703 19.3281 0.462891 18.498 0.462891C18.1562 0.462891 17.8633 0.599609 17.4629 0.814453L12.9121 3.34375L8.14648 0.492188C7.76562 0.277344 7.35547 0.169922 6.94531 0.169922C6.54492 0.169922 6.14453 0.267578 5.79297 0.472656L1.33008 2.99219C0.65625 3.37305 0.353516 3.89062 0.353516 4.63281V17.0547C0.353516 17.8848 0.871094 18.3828 1.70117 18.3828ZM6.19336 13.9297L2.57031 15.9219C2.49219 15.9609 2.43359 15.9805 2.38477 15.9805C2.26758 15.9805 2.19922 15.8926 2.19922 15.7461V5.16992C2.19922 4.88672 2.29688 4.7207 2.55078 4.57422L5.91016 2.63086C6.00781 2.57227 6.0957 2.5332 6.19336 2.47461V13.9297ZM8.07812 13.9297V2.70898C8.16602 2.75781 8.27344 2.81641 8.36133 2.875L12.1211 5.12109V16.1953C12.0039 16.127 11.8867 16.0684 11.7598 16L8.07812 13.9297ZM14.0059 16.3125V4.92578L17.6289 2.94336C17.6875 2.91406 17.7461 2.88477 17.7949 2.88477C17.9121 2.88477 18 2.98242 18 3.10938V13.627C18 13.9102 17.9023 14.0762 17.6484 14.2227L14.4258 16.0781C14.2891 16.166 14.1426 16.2441 14.0059 16.3125Z" fill="white"/>
</svg>
